<svg xmlns="http://www.w3.org/2000/svg" viewBox="0 0 438.03 18.56"><defs><style>.cls-1{fill:#131313;}</style></defs><g id="Layer_2" data-name="Layer 2"><g id="Layer_1-2" data-name="Layer 1"><path class="cls-1" d="M214.92,18.56h-.35c-.63,0-6.26-.09-10.11-7A19.4,19.4,0,0,0,200,6l-.23-.18a7.25,7.25,0,0,0-6.83-1.27,6.7,6.7,0,0,0-4.49,4.7,5.23,5.23,0,0,0-.12.54,5.87,5.87,0,0,0,1.14,4.69c1.49,2,3.48,2.87,5.45,2.42a4.68,4.68,0,0,0,3.51-3.69,3.54,3.54,0,0,0-.65-2.72A3.17,3.17,0,0,0,194.52,9a2.72,2.72,0,0,0-2,2.14,2,2,0,0,0,1.57,2.38l-.3,1.53a3.58,3.58,0,0,1-2.8-4.2,4.25,4.25,0,0,1,3.23-3.37A4.7,4.7,0,0,1,199,9.53a5.08,5.08,0,0,1,.93,4,6.21,6.21,0,0,1-4.68,4.91c-2.57.59-5.21-.53-7.06-3a7.44,7.44,0,0,1-1.43-5.93c0-.21.09-.43.15-.64A8.2,8.2,0,0,1,192.43,3a8.79,8.79,0,0,1,8.3,1.54l.21.17a20.56,20.56,0,0,1,4.88,6c3.55,6.39,8.68,6.23,8.73,6.24h.1a3.3,3.3,0,0,0,2.42-.79,3.44,3.44,0,0,0,1.2-2.36A2.59,2.59,0,0,0,216,11.05a1.75,1.75,0,0,0-1.39.53,1.7,1.7,0,0,0-.56,1.81,1.33,1.33,0,0,0,1.15.9L215,15.85a2.93,2.93,0,0,1-2.49-1.92,3.24,3.24,0,0,1,.94-3.47,3.34,3.34,0,0,1,2.62-1A4.15,4.15,0,0,1,219.83,14a5,5,0,0,1-1.74,3.43A4.89,4.89,0,0,1,214.92,18.56Z"/><path class="cls-1" d="M223.19,18.56A4.84,4.84,0,0,1,220,17.39,5,5,0,0,1,218.29,14,4.13,4.13,0,0,1,222,9.5a3.37,3.37,0,0,1,2.63,1,3.28,3.28,0,0,1,.94,3.47,2.93,2.93,0,0,1-2.5,1.92L223,14.29a1.35,1.35,0,0,0,1.16-.9,1.71,1.71,0,0,0-.57-1.81,1.83,1.83,0,0,0-1.39-.53,2.58,2.58,0,0,0-2.3,2.79A3.43,3.43,0,0,0,221,16.2a3.3,3.3,0,0,0,2.42.79h.1c.21,0,5.21.11,8.73-6.24a20.83,20.83,0,0,1,4.91-6l.19-.15A8.77,8.77,0,0,1,245.68,3a8.21,8.21,0,0,1,5.53,5.78c0,.21.1.43.14.64a7.43,7.43,0,0,1-1.42,5.93c-1.86,2.47-4.5,3.59-7.06,3a6.24,6.24,0,0,1-4.69-4.91,5.08,5.08,0,0,1,.93-4,4.72,4.72,0,0,1,4.83-2.08,4.27,4.27,0,0,1,3.23,3.37,3.59,3.59,0,0,1-2.8,4.2l-.3-1.53a2,2,0,0,0,1.56-2.38,2.7,2.7,0,0,0-2-2.14,3.16,3.16,0,0,0-3.22,1.49,3.5,3.5,0,0,0-.65,2.72,4.67,4.67,0,0,0,3.5,3.69c2,.45,4-.43,5.46-2.42a5.91,5.91,0,0,0,1.14-4.69l-.12-.54a6.69,6.69,0,0,0-4.5-4.7,7.26,7.26,0,0,0-6.83,1.27l-.21.17a19.46,19.46,0,0,0-4.51,5.55c-3.85,7-9.46,7.06-10.1,7Z"/><path class="cls-1" d="M219.06,9.85a2.5,2.5,0,0,1-2.49-2.09h0C216,4.87,218.3,1.2,218.4,1.05l.66-1,.66,1.05c.1.15,2.38,3.82,1.82,6.71A2.49,2.49,0,0,1,219.06,9.85Zm-.95-2.39a1,1,0,0,0,1.9,0,7.88,7.88,0,0,0-.95-4.34,7.79,7.79,0,0,0-.95,4.34Z"/><path class="cls-1" d="M431.35,11.86a5,5,0,0,1-1-.09,2.56,2.56,0,0,1,0-5h0c2.85-.57,6.47,1.76,6.62,1.86l1,.66-1,.65A12.35,12.35,0,0,1,431.35,11.86Zm-.65-3.58a1,1,0,0,0,0,2,7.68,7.68,0,0,0,4.29-1,7.51,7.51,0,0,0-4.29-1Z"/><path class="cls-1" d="M425.41,10.05h-.2c-.48,0-3.37-.16-5.33-3.7a9.14,9.14,0,0,0-2.13-2.62l-.12-.1a3.2,3.2,0,0,0-3-.56,2.92,2.92,0,0,0-2,2.06l-.06.24a2.52,2.52,0,0,0,.5,2,2.26,2.26,0,0,0,2.3,1.06,1.92,1.92,0,0,0,1.44-1.52,1.35,1.35,0,0,0-.25-1,1.17,1.17,0,0,0-1.2-.58.93.93,0,0,0-.71.75.62.62,0,0,0,.47.72l-.3,1.53a2.16,2.16,0,0,1-1.7-2.54,2.49,2.49,0,0,1,1.9-2,2.73,2.73,0,0,1,2.8,1.19,2.92,2.92,0,0,1,.53,2.26A3.49,3.49,0,0,1,415.74,10a3.8,3.8,0,0,1-3.91-1.64,4.12,4.12,0,0,1-.78-3.25c0-.12.05-.23.08-.35a4.53,4.53,0,0,1,3-3.14,4.76,4.76,0,0,1,4.49.84l.1.08a10.93,10.93,0,0,1,2.52,3.09,5.26,5.26,0,0,0,3.33,2.81,1.85,1.85,0,0,1-.71-.91,2,2,0,0,1,.56-2.13A2.08,2.08,0,0,1,426,4.76a2.46,2.46,0,0,1,2.21,2.64,2.86,2.86,0,0,1-2.83,2.65Zm.45-3.73a.52.52,0,0,0-.35.15.48.48,0,0,0-.18.48.29.29,0,0,0,.23.19l-.1,1.34a1.24,1.24,0,0,0,.77-.3,1.35,1.35,0,0,0,.45-.9.88.88,0,0,0-.79-1Z"/><path class="cls-1" d="M415.61,17.19a4.77,4.77,0,0,1-1.48-.24,4.51,4.51,0,0,1-3-3.14c0-.12-.06-.23-.08-.35a4.12,4.12,0,0,1,.78-3.25,3.82,3.82,0,0,1,3.91-1.64,3.49,3.49,0,0,1,2.62,2.75,3,3,0,0,1-.53,2.27,2.72,2.72,0,0,1-2.8,1.18,2.5,2.5,0,0,1-1.9-2,2.17,2.17,0,0,1,1.7-2.55l.3,1.54a.61.61,0,0,0-.47.71,1,1,0,0,0,.71.76,1.2,1.2,0,0,0,1.2-.59,1.34,1.34,0,0,0,.25-1.05,1.91,1.91,0,0,0-1.44-1.51,2.25,2.25,0,0,0-2.3,1.05,2.52,2.52,0,0,0-.5,2l.06.24a3,3,0,0,0,2,2.07,3.23,3.23,0,0,0,3-.56l.1-.09a9.23,9.23,0,0,0,2.15-2.64c2-3.56,4.88-3.67,5.35-3.7a2.79,2.79,0,0,1,2,.67,2.85,2.85,0,0,1,1,2A2.45,2.45,0,0,1,426,13.76a2,2,0,0,1-1.61-.59,2,2,0,0,1-.56-2.13,1.89,1.89,0,0,1,.71-.91,5.26,5.26,0,0,0-3.33,2.81,10.75,10.75,0,0,1-2.54,3.11l-.08.07A4.8,4.8,0,0,1,415.61,17.19ZM425.46,10l.1,1.34a.29.29,0,0,0-.23.19.49.49,0,0,0,.18.49.55.55,0,0,0,.39.15.88.88,0,0,0,.78-1,1.35,1.35,0,0,0-.45-.91A1.3,1.3,0,0,0,425.46,10Z"/><rect class="cls-1" x="250.61" y="8.48" width="164.12" height="1.56"/><path class="cls-1" d="M6.67,11.86A12.29,12.29,0,0,1,1,9.91L0,9.26,1,8.6c.15-.1,3.76-2.43,6.62-1.86h0a2.57,2.57,0,0,1,0,5A5,5,0,0,1,6.67,11.86ZM3,9.26a7.7,7.7,0,0,0,4.29,1,1,1,0,0,0,0-2h0A7.53,7.53,0,0,0,3,9.26Z"/><path class="cls-1" d="M12.61,10.05a2.78,2.78,0,0,1-1.82-.68,2.85,2.85,0,0,1-1-2A2.45,2.45,0,0,1,12,4.76a2.12,2.12,0,0,1,1.61.59,2,2,0,0,1,.57,2.13,1.85,1.85,0,0,1-.71.91,5.24,5.24,0,0,0,3.32-2.8,10.75,10.75,0,0,1,2.54-3.11l.09-.07a4.76,4.76,0,0,1,4.49-.84,4.54,4.54,0,0,1,3,3.15c0,.11.05.22.08.34a4.16,4.16,0,0,1-.78,3.25A3.81,3.81,0,0,1,22.29,10,3.49,3.49,0,0,1,19.67,7.2a2.88,2.88,0,0,1,.53-2.26A2.72,2.72,0,0,1,23,3.75a2.51,2.51,0,0,1,1.9,2,2.18,2.18,0,0,1-1.7,2.54l-.3-1.53A.61.61,0,0,0,23.36,6a.93.93,0,0,0-.71-.75,1.19,1.19,0,0,0-1.2.58,1.39,1.39,0,0,0-.25,1,1.94,1.94,0,0,0,1.44,1.52A2.28,2.28,0,0,0,25,7.37a2.51,2.51,0,0,0,.49-2,2,2,0,0,0-.05-.24,2.92,2.92,0,0,0-2-2.06,3.19,3.19,0,0,0-3,.56l-.11.08a9.13,9.13,0,0,0-2.14,2.65c-2,3.56-4.86,3.7-5.35,3.69Zm-.45-3.73h0a.89.89,0,0,0-.79,1,1.32,1.32,0,0,0,.46.9,1.24,1.24,0,0,0,.77.3l-.11-1.34A.29.29,0,0,0,12.7,7c.05-.14,0-.31-.19-.48A.5.5,0,0,0,12.16,6.32Z"/><path class="cls-1" d="M22.41,17.19a4.75,4.75,0,0,1-3-1.07l-.1-.09a10.34,10.34,0,0,1-2.52-3.09,5.33,5.33,0,0,0-3.33-2.81,1.89,1.89,0,0,1,.71.91,2,2,0,0,1-.57,2.13,2,2,0,0,1-1.61.59,2.44,2.44,0,0,1-2.2-2.64,2.85,2.85,0,0,1,1-2,2.78,2.78,0,0,1,2-.67h0c.49,0,3.38.16,5.34,3.7a9.32,9.32,0,0,0,2.12,2.63l.13.1a3.22,3.22,0,0,0,3,.56,3,3,0,0,0,2-2.06,1.84,1.84,0,0,0,.05-.25,2.51,2.51,0,0,0-.49-2,2.25,2.25,0,0,0-2.31-1.05,1.92,1.92,0,0,0-1.44,1.51,1.38,1.38,0,0,0,.25,1.05,1.21,1.21,0,0,0,1.2.59,1,1,0,0,0,.71-.76.59.59,0,0,0-.46-.71l.3-1.54a2.18,2.18,0,0,1,1.7,2.55,2.51,2.51,0,0,1-1.9,2,2.71,2.71,0,0,1-2.8-1.18,2.91,2.91,0,0,1-.53-2.27,3.49,3.49,0,0,1,2.62-2.75,3.81,3.81,0,0,1,3.91,1.64A4.16,4.16,0,0,1,27,13.46c0,.12-.05.23-.08.35a4.53,4.53,0,0,1-3,3.14A4.79,4.79,0,0,1,22.41,17.19ZM12.57,10a1.3,1.3,0,0,0-.77.3,1.32,1.32,0,0,0-.46.91.9.9,0,0,0,.79,1,.53.53,0,0,0,.38-.15.49.49,0,0,0,.19-.49.29.29,0,0,0-.24-.19Z"/><rect class="cls-1" x="23.29" y="8.48" width="164.12" height="1.56"/></g></g></svg>